<svg xmlns="http://www.w3.org/2000/svg" width="21" height="20"><path fill="#FFF" d="M17.928 0H3.197A2.633 2.633 0 00.56 2.618V13.03a2.633 2.633 0 002.632 2.623H7.47l2.642 4.11a.502.502 0 00.442.236c.179 0 .347-.09.442-.241l2.616-4.105h4.315a2.633 2.633 0 002.632-2.623V2.618A2.628 2.628 0 0017.928 0zM6.244 5.76h3.895c.29 0 .526.235.526.523a.526.526 0 01-.526.523H6.244a.525.525 0 01-.526-.523c0-.288.237-.524.526-.524zm8.632 3.664H6.244a.526.526 0 01-.526-.524c0-.288.237-.523.526-.523h8.632c.29 0 .526.235.526.523a.527.527 0 01-.526.524z" opacity=".5"/></svg>